<svg width="683" height="683" viewBox="0 0 683 683" fill="none" xmlns="http://www.w3.org/2000/svg">
<path d="M233.333 0.800143C223.733 2.66681 212.533 7.46681 204.133 13.4668C177.6 32.0001 166 63.6001 174 94.9335L174.933 98.6668L164.933 94.0001C130.8 78.2668 95.3333 84.5335 68.6666 111.333C37.4666 142.533 34.1333 187.467 60.4 222.533C64.1333 227.6 65.3333 230 64 230.4C63.0666 230.8 57.4666 233.467 51.4666 236.4C36 244.133 18.8 261.467 10.9333 277.333C4.79998 289.733 1.86664 299.867 0.533309 312.933L-0.400024 321.333H76.8C162.8 321.333 160 321.067 166.267 330.533C168.933 334.4 169.333 336.8 169.333 347.867C169.467 354.933 170 363.333 170.533 366.533C174 384.4 194.4 391.467 207.867 379.2C214.4 373.467 216 367.333 216 348.933C216 336.667 216.4 334.533 219.067 330.533C225.067 321.467 226.133 321.333 276.4 321.333H321.333V288.8V256.133L315.067 255.333C290.267 251.867 273.6 240.667 264 220.667C256.4 205.067 255.733 186.933 261.867 170.133C270.267 147.067 290.267 132.533 316.667 130.267L320.667 130V95.3335C320.667 62.5335 320.533 60.1335 317.6 51.7335C309.733 29.2001 291.333 10.8001 269.467 3.86681C260.933 1.06681 240.667 -0.533191 233.333 0.800143Z" fill="#FFEE53"/>
<path d="M417.733 2.53348C407.333 5.33348 402.133 7.73348 394 13.3335C381.467 22.0001 370.533 36.2668 365.2 51.0668C362.4 58.9335 362.133 61.7335 361.467 108C360.533 162 360.667 161.2 351.6 166.667C348.133 168.8 344.8 169.333 334 169.333C326.667 169.333 318.267 170 315.467 170.667C293.6 175.733 290.8 204.133 311.333 213.467C315.467 215.467 320 216 332.133 216C346 216 348.133 216.267 352.133 219.067C361.2 225.067 361.333 226.133 361.333 276.267V321.333H393.867H426.533L427.333 314.933C430.267 292.933 438.933 278.267 455.067 267.867C465.867 260.8 475.467 258.133 490 258.133C522.933 258 548.133 280.4 551.733 312.667L552.667 320.667L617.867 321.067L683.067 321.333L682.133 312.933C680.8 299.867 677.867 289.733 671.733 277.333C663.867 261.467 646.667 244.133 631.2 236.4C625.2 233.467 619.6 230.8 618.667 230.4C617.467 230 618.533 227.6 622.4 222.533C643.333 194.8 645.467 158.4 627.733 128.267C621.2 116.933 605.067 101.6 593.733 95.6002C569.2 82.8002 543.333 82.1335 517.733 94.0002L507.733 98.6668L508.667 94.9335C516.533 64.1335 504.933 32.2668 479.067 13.7335C466.8 5.06681 455.6 1.20015 440 0.533479C430.267 0.133479 425.067 0.533479 417.733 2.53348Z" fill="#F34C88"/>
<path d="M481.333 298.8C476.933 300.667 470.8 306.533 468.933 310.667C468.133 312.533 467.2 321.867 466.8 331.6C465.867 351.2 464.667 354.133 456 358.8C451.733 361.067 447.6 361.333 406.4 361.333H361.333V393.867V426.533L367.733 427.333C399.333 431.733 419.6 450.667 424.267 480.4C429.733 516 405.6 547.867 370 551.733L362 552.667V587.333C362 620.133 362.133 622.533 365.067 630.933C372.933 653.6 391.6 672 414 679.067C428 683.467 449.2 683.067 461.867 678.267C498.4 664 518.4 625.467 508.667 587.733L507.733 584L517.467 588.533C551.733 604.133 587.6 598 613.333 572.133C618.8 566.533 625.333 558.533 627.733 554.4C645.333 524.533 643.333 487.867 622.533 460.267C619.467 456.4 617.333 453.067 617.6 452.933C617.733 452.8 623.2 450.133 629.6 446.933C649.6 437.067 668.533 416.4 676 396.267C679.067 388 682.667 371.467 682.667 365.2V361.333H605.733C519.867 361.333 522.667 361.6 516.4 352.133C513.733 348.267 513.333 345.867 513.333 334.8C513.2 314 511.067 307.333 502.267 300.8C498.267 297.867 486.4 296.667 481.333 298.8Z" fill="#7D16FF"/>
<path d="M0 365.2C0 371.467 3.46667 388 6.66667 396.267C14 415.733 33.2 437.067 52 446.533C57.6 449.333 63.0667 451.867 64 452.267C65.3333 452.667 64.1333 455.067 60.4 460.133C45.0667 480.533 39.6 504.4 44.6667 528.667C49.7333 552.8 68.4 576.8 90.6667 587.867C115.467 600 139.6 600.267 165.2 588.533L174.933 584L174 587.733C167.867 611.6 172.933 635.2 188.533 654.933C196 664.267 208.8 673.6 220.8 678.267C233.467 683.067 254.667 683.467 268.667 679.067C290.8 672.133 309.333 654.133 317.467 631.6C320.267 623.733 320.533 620.933 321.2 574.667C321.867 531.067 322.267 525.467 324.4 522.267C328.933 515.2 332.533 514 351.333 513.2C370.667 512.4 374.933 510.933 380.667 503.467C386.8 495.333 386.8 483.467 380.4 476C374.4 468.8 370.4 467.467 351.067 466.667C331.467 465.867 328.133 464.533 323.733 455.867C321.6 451.867 321.333 446.533 321.333 406.267V361.333H288.8H256.133L255.333 367.6C254.133 377.467 249.6 390.667 245.067 397.733C232.933 416.667 206.533 428.133 183.733 424.4C154 419.333 134.133 398.933 130.933 370L130 362L65.0667 361.6L0 361.333V365.2Z" fill="#18EDFB"/>
</svg>
