<svg width="120" height="120" viewBox="0 0 120 120" fill="none" xmlns="http://www.w3.org/2000/svg">
<path d="M10 95C10.1171 98.8835 10.5506 101.2 12.1553 102.803C14.3539 105 17.8924 105 24.9696 105H39.825C43.7128 105 45.6566 105 45.8776 104.302C46.0985 103.603 44.4356 102.434 41.1099 100.096C29.3444 91.824 19.9653 77.5455 19.9653 61.318C19.9653 35.7372 37.8894 15 60 15C82.1105 15 100.035 35.7372 100.035 61.318C100.035 77.5455 90.6555 91.824 78.89 100.096C75.5645 102.434 73.9015 103.603 74.1225 104.302C74.3435 105 76.287 105 80.175 105H95.0305C102.107 105 105.646 105 107.844 102.803C109.449 101.2 109.883 98.8835 110 95" stroke="#fff" stroke-width="3" stroke-linecap="round" stroke-linejoin="round"/>
</svg>
