<svg width="120" height="120" viewBox="0 0 120 120" fill="none" xmlns="http://www.w3.org/2000/svg">
<path d="M40 30C25.8579 30 18.7868 30 14.3934 34.3934C10 38.7868 10 45.8579 10 60C10 74.142 10 81.213 14.3934 85.6065C17.2399 88.453 21.2104 89.4555 27.5 89.808M60 89.9135L65 90C79.142 90 86.213 90 90.6065 85.6065C95 81.213 95 74.142 95 60C95 45.8579 95 38.7868 90.6065 34.3934C87.07 30.8569 81.7985 30.1671 72.5 30.0326" stroke="#fff" stroke-width="3" stroke-linecap="round"/>
<path d="M57.8115 30L42.9585 52.1835C40.6583 55.6185 39.5082 57.3365 40.1995 58.668C40.8907 60 42.9323 60 47.0154 60H52.9845C57.068 60 59.1095 60 59.8005 61.332C60.492 62.6635 59.3415 64.3815 57.0415 67.8165L42.1885 90" stroke="#fff" stroke-width="3" stroke-linecap="round"/>
<path d="M95 47.5L100.136 48.356C103.543 48.9237 105.246 49.2076 106.538 50.0335C107.809 50.8455 108.806 52.022 109.398 53.4095C110 54.82 110 56.5465 110 60C110 63.4535 110 65.18 109.398 66.5905C108.806 67.978 107.809 69.1545 106.538 69.9665C105.246 70.7925 103.543 71.0765 100.136 71.644L95 72.5" stroke="#fff" stroke-width="3" stroke-linecap="round"/>
</svg>
