<svg width="120" height="120" viewBox="0 0 120 120" fill="none"  xmlns="http://www.w3.org/2000/svg">
<path  d="M86.9985 29.1903C89.144 27.045 91.8325 25.7744 94.6215 25.3784M94.6215 25.3784C98.6735 24.803 102.937 26.0737 106.053 29.1903C111.315 34.4522 111.315 42.9833 106.053 48.2452C101.814 52.485 95.452 53.3085 90.3875 50.716C88.3175 49.6566 85.6655 49.5782 84.0215 51.2225L51.2225 84.0215C49.5782 85.6655 49.6566 88.3175 50.716 90.3875C53.3085 95.452 52.485 101.814 48.2452 106.053C42.9833 111.315 34.4522 111.315 29.1903 106.053C26.0737 102.937 24.803 98.6735 25.3784 94.6215M94.6215 25.3784C95.197 21.3265 93.9265 17.063 90.8095 13.9464C85.548 8.68454 77.0165 8.68454 71.755 13.9464C67.515 18.186 66.6915 24.548 69.284 29.6123C70.3435 31.6823 70.422 34.3343 68.7775 35.9786L35.9786 68.7775C34.3343 70.422 31.6823 70.3435 29.6123 69.284C24.548 66.6915 18.186 67.515 13.9464 71.755C8.68454 77.0165 8.68454 85.548 13.9464 90.8095C17.063 93.9265 21.3266 95.197 25.3784 94.6215M25.3784 94.6215C28.1674 94.2255 30.856 92.955 33.0013 90.8095" stroke="#fff" stroke-width="3" stroke-linecap="round" stroke-linejoin="round"/>
</svg>
