<svg width="120" height="120" viewBox="0 0 120 120" fill="none" xmlns="http://www.w3.org/2000/svg">
<path d="M55 32.5V97.5" stroke="#fff" stroke-width="3" stroke-linecap="round"/>
<path d="M55 97.5C53.8885 97.5 51.6175 96.2895 47.0763 93.869C42.4605 91.409 36.0835 88.961 27.9125 87.4245C18.7464 85.7005 14.1634 84.839 12.0817 82.294C10 79.7495 10 75.6735 10 67.522V35.4827C10 26.5676 10 22.1101 13.2435 19.3651C16.4871 16.62 20.2955 17.3362 27.9125 18.7686C42.9479 21.596 51.909 27.5102 55 30.9057C58.091 27.5102 67.052 21.596 82.0875 18.7686C89.7045 17.3362 93.513 16.62 96.7565 19.3651C100 22.1101 100 26.5676 100 35.4827V50" stroke="#fff" stroke-width="3" stroke-linecap="round" stroke-linejoin="round"/>
<path d="M103.329 78.206L86.79 94.745L92.093 100.049L108.633 83.509L103.329 78.206ZM77.755 85.71L94.294 69.171L88.991 63.8675L72.4515 80.407L77.755 85.71ZM75.9545 98.1115C75.0775 98.299 74.3765 98.4485 73.774 98.5605C73.1665 98.6735 72.768 98.727 72.498 98.744C72.2205 98.762 72.2395 98.729 72.4125 98.7735C72.648 98.8345 72.968 98.986 73.241 99.259L67.938 104.562C69.5565 106.181 71.579 106.318 72.974 106.229C74.3015 106.145 75.9195 105.788 77.5225 105.445L75.9545 98.1115ZM67.0545 94.9775C66.7115 96.5805 66.3555 98.1985 66.271 99.526C66.182 100.921 66.319 102.943 67.938 104.562L73.241 99.259C73.514 99.532 73.6655 99.852 73.7265 100.087C73.771 100.26 73.738 100.28 73.756 100.002C73.773 99.732 73.8265 99.3335 73.9395 98.726C74.0515 98.1235 74.201 97.4225 74.3885 96.5455L67.0545 94.9775ZM103.329 69.171C105.167 71.0085 105.542 71.43 105.734 71.7615L112.229 68.0115C111.42 66.609 110.129 65.364 108.633 63.8675L103.329 69.171ZM108.633 83.509C110.129 82.013 111.42 80.7675 112.229 79.3655L105.734 75.6155C105.542 75.947 105.167 76.3685 103.329 78.206L108.633 83.509ZM105.734 71.7615C106.422 72.954 106.422 74.423 105.734 75.6155L112.229 79.3655C114.257 75.8525 114.257 71.5245 112.229 68.0115L105.734 71.7615ZM108.633 63.8675C107.136 62.3715 105.891 61.0805 104.489 60.271L100.739 66.7665C101.07 66.958 101.492 67.3335 103.329 69.171L108.633 63.8675ZM94.294 69.171C96.1315 67.3335 96.553 66.958 96.8845 66.7665L93.1345 60.271C91.7325 61.0805 90.487 62.3715 88.991 63.8675L94.294 69.171ZM104.489 60.271C100.976 58.243 96.6475 58.243 93.1345 60.271L96.8845 66.7665C98.077 66.078 99.546 66.078 100.739 66.7665L104.489 60.271ZM86.79 94.745C85.812 95.7225 84.476 96.355 82.5775 96.8395C81.6265 97.0825 80.612 97.27 79.4815 97.4655C78.395 97.653 77.1515 97.8555 75.9545 98.1115L77.5225 105.445C78.5315 105.23 79.5655 105.062 80.7585 104.856C81.907 104.658 83.173 104.428 84.433 104.107C86.957 103.462 89.7665 102.375 92.093 100.049L86.79 94.745ZM74.3885 96.5455C74.6445 95.3485 74.847 94.105 75.0345 93.0185C75.23 91.888 75.4175 90.8735 75.6605 89.9225C76.145 88.024 76.7775 86.688 77.755 85.71L72.4515 80.407C70.125 82.7335 69.038 85.543 68.3935 88.067C68.072 89.327 67.8425 90.593 67.644 91.7415C67.438 92.9345 67.27 93.9685 67.0545 94.9775L74.3885 96.5455Z" fill="#fff"/>
</svg>
