<svg width="120" height="120" viewBox="0 0 120 120" fill="none"  xmlns="http://www.w3.org/2000/svg">
<path d="M54.9805 50H55.0555M54.999 80H55.074" stroke="#fff" stroke-width="10" stroke-linecap="round" stroke-linejoin="round"/>
<path d="M35 65H75" stroke="#fff" stroke-width="3" stroke-linecap="round" stroke-linejoin="round"/>
<path d="M87.5 25C91.6421 25 95 28.3579 95 32.5C95 36.6421 91.6421 40 87.5 40C83.3579 40 80 36.6421 80 32.5C80 28.3579 83.3579 25 87.5 25Z" stroke="#fff" stroke-width="3" stroke-linecap="round" stroke-linejoin="round"/>
<path d="M13.8712 55.7195C8.8554 61.3215 8.7475 69.773 13.3508 75.7185C22.4856 87.5165 32.4837 97.5145 44.2817 106.649C50.227 111.252 58.6785 111.144 64.2805 106.129C79.4895 92.511 93.4175 78.2795 106.86 62.6395C108.189 61.0935 109.02 59.1985 109.206 57.168C110.031 48.1899 111.726 22.3233 104.702 15.2987C97.6765 8.27405 71.81 9.96885 62.832 10.7938C60.8015 10.9804 58.9065 11.8116 57.36 13.1405C41.7206 26.5823 27.4891 40.5105 13.8712 55.7195Z" stroke="#fff" stroke-width="3"/>
</svg>
